<svg id="svg" version="1.1" xmlns="http://www.w3.org/2000/svg" xmlns:xlink="http://www.w3.org/1999/xlink" width="400" height="400" viewBox="0, 0, 400,400"><g id="svgg"><path id="path0" d="M19.646 206.462 L 19.600 309.523 20.568 312.385 C 23.072 319.785,29.824 326.082,37.126 327.828 C 41.231 328.809,355.730 328.646,359.283 327.661 C 366.789 325.579,373.100 319.435,375.704 311.672 L 376.600 309.000 376.600 276.800 L 376.600 244.600 339.600 244.378 C 299.164 244.136,301.388 244.271,296.937 241.786 C 290.454 238.166,287.174 234.258,284.529 227.000 C 283.873 225.200,283.800 223.521,283.800 210.200 L 283.800 195.400 284.919 192.600 C 286.327 189.076,288.777 185.291,290.935 183.305 C 292.567 181.803,296.134 179.200,296.560 179.200 C 296.679 179.200,297.727 178.776,298.888 178.258 C 300.050 177.740,301.360 177.157,301.800 176.962 C 302.240 176.767,319.250 176.516,339.600 176.404 L 376.600 176.200 376.600 148.600 L 376.600 121.000 208.200 120.759 C 49.041 120.531,36.759 120.446,35.820 119.559 C 35.611 119.362,35.152 119.200,34.800 119.200 C 33.969 119.200,32.007 118.288,32.003 117.900 C 32.001 117.735,31.807 117.600,31.572 117.600 C 29.547 117.600,21.600 109.648,21.600 107.622 C 21.600 107.390,21.420 107.200,21.200 107.200 C 20.980 107.200,20.800 106.876,20.800 106.480 C 20.800 106.084,20.637 105.589,20.439 105.380 C 20.240 105.171,19.991 104.640,19.885 104.200 C 19.779 103.760,19.672 149.778,19.646 206.462 M305.000 196.748 C 290.374 200.623,290.979 221.388,305.800 224.198 C 312.785 225.522,319.658 221.212,321.795 214.166 C 324.795 204.277,314.984 194.102,305.000 196.748 " stroke="none" fill="#045c84" fill-rule="evenodd"></path><path id="path1" d="M37.731 72.194 C 34.533 72.976,29.742 75.529,27.324 77.739 C 23.909 80.860,21.712 84.467,20.018 89.731 C 19.347 91.817,19.582 103.618,20.300 103.894 C 20.575 103.999,20.800 104.516,20.800 105.043 C 20.800 105.569,20.980 106.000,21.200 106.000 C 21.420 106.000,21.600 106.360,21.600 106.800 C 21.600 107.240,21.780 107.600,22.000 107.600 C 22.220 107.600,22.400 107.870,22.400 108.200 C 22.400 108.530,22.599 108.800,22.843 108.800 C 23.086 108.800,23.182 109.070,23.055 109.400 C 22.915 109.765,23.055 110.000,23.413 110.000 C 23.736 110.000,24.000 110.153,24.000 110.339 C 24.000 110.781,28.419 115.200,28.861 115.200 C 29.047 115.200,29.200 115.464,29.200 115.787 C 29.200 116.145,29.435 116.285,29.800 116.145 C 30.130 116.018,30.400 116.114,30.400 116.357 C 30.400 116.601,30.760 116.800,31.200 116.800 C 31.640 116.800,32.000 116.980,32.000 117.200 C 32.000 117.420,32.270 117.600,32.600 117.600 C 32.930 117.600,33.200 117.845,33.200 118.145 C 33.200 118.510,33.529 118.626,34.200 118.498 C 34.784 118.386,35.200 118.493,35.200 118.753 C 35.200 118.999,35.725 119.200,36.367 119.200 C 37.008 119.200,37.593 119.367,37.667 119.572 C 37.873 120.149,30.636 120.128,208.100 120.062 L 376.400 120.000 376.400 105.528 C 376.400 90.183,376.391 90.097,374.257 85.200 C 371.683 79.291,364.860 73.794,358.095 72.177 C 354.824 71.395,40.929 71.412,37.731 72.194 M339.600 176.404 C 319.250 176.516,302.240 176.767,301.800 176.962 C 301.360 177.157,300.050 177.740,298.888 178.258 C 297.727 178.776,296.679 179.200,296.560 179.200 C 296.134 179.200,292.567 181.803,290.935 183.305 C 288.777 185.291,286.327 189.076,284.919 192.600 L 283.800 195.400 283.800 210.200 C 283.800 225.991,283.779 225.786,285.902 230.400 C 288.611 236.286,294.225 241.249,300.724 243.504 C 303.238 244.376,376.375 244.946,377.165 244.100 C 377.421 243.825,378.436 243.600,379.420 243.600 C 383.066 243.600,386.778 240.688,387.738 237.073 C 389.042 232.169,389.054 188.415,387.753 183.727 C 386.744 180.090,383.060 177.200,379.433 177.200 C 378.456 177.200,377.419 176.975,377.129 176.700 C 376.710 176.304,368.877 176.242,339.600 176.404 M314.330 197.764 C 326.639 204.002,324.150 221.647,310.600 224.200 C 297.136 226.738,288.745 209.752,298.714 200.139 C 302.552 196.438,309.598 195.366,314.330 197.764 " stroke="none" fill="#0473bb" fill-rule="evenodd"></path><path id="path2" d="M36.243 71.855 C 27.876 74.874,21.891 81.033,19.579 89.004 C 18.576 92.461,18.722 309.038,19.729 311.800 C 22.081 318.254,25.729 322.878,30.618 325.603 C 31.488 326.088,32.380 326.628,32.600 326.804 C 32.820 326.979,34.155 327.499,35.566 327.961 L 38.132 328.800 197.966 328.796 C 338.212 328.792,358.040 328.719,359.759 328.197 C 361.496 327.670,366.673 325.052,367.200 324.434 C 367.310 324.305,368.210 323.493,369.200 322.629 C 373.639 318.754,376.183 313.867,377.167 307.323 C 377.448 305.456,377.600 293.928,377.600 274.461 L 377.600 244.475 379.700 244.213 C 388.668 243.096,389.600 239.983,389.600 211.152 C 389.600 181.055,388.654 177.687,379.900 176.622 L 377.600 176.342 377.589 148.271 C 377.582 132.832,377.587 115.036,377.600 108.724 C 377.622 97.060,377.214 91.238,376.145 88.000 C 373.657 80.463,367.708 74.651,359.600 71.836 C 357.007 70.936,38.738 70.955,36.243 71.855 M358.095 72.177 C 364.860 73.794,371.683 79.291,374.257 85.200 C 376.391 90.097,376.400 90.183,376.400 105.528 L 376.400 120.000 208.120 120.000 C 96.066 120.000,39.973 120.133,40.240 120.400 C 40.504 120.664,97.433 120.833,208.620 120.900 L 376.600 121.000 376.703 148.778 C 376.783 170.391,376.916 176.626,377.303 176.872 C 377.576 177.046,378.567 177.191,379.504 177.194 C 383.068 177.207,386.754 180.126,387.753 183.727 C 389.054 188.415,389.042 232.169,387.738 237.073 C 386.789 240.646,383.074 243.593,379.504 243.606 C 378.567 243.609,377.582 243.751,377.316 243.920 C 376.945 244.156,376.803 251.853,376.709 276.814 L 376.587 309.400 375.688 311.888 C 372.886 319.641,366.677 325.610,359.283 327.661 C 355.730 328.646,41.231 328.809,37.126 327.828 C 29.819 326.081,23.072 319.785,20.564 312.374 L 19.593 309.502 19.604 200.257 C 19.613 120.842,19.738 90.629,20.063 89.606 C 21.107 86.327,21.934 84.568,23.657 81.970 C 26.623 77.495,32.365 73.506,37.731 72.194 C 40.929 71.412,354.824 71.395,358.095 72.177 M20.000 104.576 C 20.000 104.893,20.180 105.264,20.400 105.400 C 20.620 105.536,20.800 105.277,20.800 104.824 C 20.800 104.371,20.620 104.000,20.400 104.000 C 20.180 104.000,20.000 104.259,20.000 104.576 M20.800 106.600 C 20.800 106.930,20.980 107.200,21.200 107.200 C 21.420 107.200,21.600 106.930,21.600 106.600 C 21.600 106.270,21.420 106.000,21.200 106.000 C 20.980 106.000,20.800 106.270,20.800 106.600 M21.613 107.900 C 21.640 108.533,22.806 109.726,23.096 109.416 C 23.263 109.237,23.175 109.010,22.900 108.912 C 22.625 108.814,22.400 108.478,22.400 108.167 C 22.400 107.855,22.220 107.600,22.000 107.600 C 21.780 107.600,21.606 107.735,21.613 107.900 M23.200 110.378 C 23.200 110.871,28.329 116.000,28.822 116.000 C 29.030 116.000,29.200 115.820,29.200 115.600 C 29.200 115.380,29.047 115.200,28.861 115.200 C 28.419 115.200,24.000 110.781,24.000 110.339 C 24.000 110.153,23.820 110.000,23.600 110.000 C 23.380 110.000,23.200 110.170,23.200 110.378 M29.600 116.366 C 29.600 116.568,30.140 116.972,30.800 117.264 C 31.460 117.556,32.000 117.931,32.000 118.098 C 32.000 118.264,32.270 118.400,32.600 118.400 C 32.930 118.400,33.200 118.220,33.200 118.000 C 33.200 117.780,32.930 117.600,32.600 117.600 C 32.270 117.600,32.000 117.420,32.000 117.200 C 32.000 116.980,31.640 116.800,31.200 116.800 C 30.760 116.800,30.400 116.620,30.400 116.400 C 30.400 116.180,30.220 116.000,30.000 116.000 C 29.780 116.000,29.600 116.165,29.600 116.366 M33.600 118.800 C 33.600 119.020,33.960 119.200,34.400 119.200 C 34.840 119.200,35.200 119.020,35.200 118.800 C 35.200 118.580,34.840 118.400,34.400 118.400 C 33.960 118.400,33.600 118.580,33.600 118.800 M35.800 119.600 C 35.936 119.820,36.397 120.000,36.824 120.000 C 37.251 120.000,37.600 119.820,37.600 119.600 C 37.600 119.380,37.139 119.200,36.576 119.200 C 35.996 119.200,35.660 119.373,35.800 119.600 " stroke="none" fill="#2c84bc" fill-rule="evenodd"></path></g></svg>