<?xml version="1.0" encoding="UTF-8"?>
<svg version="1.1" xmlns="http://www.w3.org/2000/svg" width="211" height="164">
<path d="M0 0 C69.63 0 139.26 0 211 0 C211 54.12 211 108.24 211 164 C141.37 164 71.74 164 0 164 C0 109.88 0 55.76 0 0 Z " fill="#C8D1D7" transform="translate(0,0)"/>
<path d="M0 0 C69.63 0 139.26 0 211 0 C211 54.12 211 108.24 211 164 C141.37 164 71.74 164 0 164 C0 109.88 0 55.76 0 0 Z M125.94238281 12.81079102 C107.42860281 23.35626095 92.03543803 24.67377148 71.03186035 24.00646973 C64.94279797 23.82242649 58.85259811 23.73875429 52.76117706 23.68475533 C50.66154081 23.6531295 48.56652528 23.57996236 46.46820068 23.50120544 C38.46802768 23.23446853 38.46802768 23.23446853 31.64941406 26.89672852 C28.68931908 29.99876321 27.87551939 32.07665823 27.85955811 36.34492493 C27.85384796 37.25759125 27.84813782 38.17025757 27.84225464 39.11058044 C27.84113678 40.11476517 27.84001892 41.11894989 27.83886719 42.15356445 C27.83390228 43.20896423 27.82893738 44.26436401 27.82382202 45.35174561 C27.80917452 48.85559737 27.80239394 52.35940385 27.796875 55.86328125 C27.79112551 58.29225161 27.78536776 60.72122194 27.77960205 63.15019226 C27.76908458 68.24881197 27.76324685 73.34741588 27.75976562 78.44604492 C27.75428052 84.98327505 27.73025507 91.52029694 27.70179367 98.05746174 C27.68318089 103.07686475 27.6779624 108.09621748 27.67642975 113.11565208 C27.67339943 115.52582118 27.66535822 117.93598932 27.65224457 120.34612465 C27.6352135 123.71699538 27.63705742 127.0873558 27.64355469 130.45825195 C27.6343399 131.45636398 27.62512512 132.45447601 27.6156311 133.48283386 C27.65382363 139.7997955 28.40691805 143.40691805 33 148 C35.42676731 148.31322513 35.42676731 148.31322513 38.29402161 148.27415466 C39.41704178 148.28412979 40.54006195 148.29410492 41.69711304 148.30438232 C42.93506622 148.305047 44.17301941 148.30571167 45.44848633 148.30639648 C46.74772537 148.31472 48.04696442 148.32304352 49.38557434 148.33161926 C52.95593424 148.35360328 56.52620848 148.36236862 60.09662843 148.36744571 C62.32691293 148.3710854 64.55717487 148.37732348 66.78745079 148.3844471 C74.56737634 148.40895742 82.34723508 148.42199641 90.12719727 148.42553711 C97.38002319 148.42917125 104.63242562 148.45905338 111.88512212 148.50094169 C118.11025692 148.53563516 124.33525137 148.5510854 130.5604822 148.55178314 C134.27924058 148.55257645 137.99756804 148.56133832 141.71622658 148.58978081 C145.86556476 148.62080599 150.01389492 148.61190652 154.16333008 148.59936523 C155.39521057 148.61419952 156.62709106 148.62903381 157.89630127 148.64431763 C164.64448679 148.81028688 164.64448679 148.81028688 170.23979187 145.58753967 C173.07536106 141.41919863 173.13334928 138.50642234 173.09765625 133.5859375 C173.0962413 132.85629791 173.09482635 132.12665833 173.09336853 131.37490845 C173.08776531 129.04156415 173.07521235 126.70831536 173.0625 124.375 C173.05748541 122.79427222 173.05292243 121.21354293 173.04882812 119.6328125 C173.03779484 115.75517146 173.02052811 111.87760193 173 108 C173.61488281 107.95029053 174.22976562 107.90058105 174.86328125 107.84936523 C175.67152344 107.77403564 176.47976562 107.69870605 177.3125 107.62109375 C178.11300781 107.55075928 178.91351563 107.4804248 179.73828125 107.40795898 C182.97282104 106.82452678 184.74605462 105.32438117 187 103 C189.10090361 98.79819278 188.26787481 93.3558819 188.29516602 88.73364258 C188.31235006 86.70519971 188.35623375 84.67840006 188.40039062 82.65039062 C188.40876953 81.36712891 188.41714844 80.08386719 188.42578125 78.76171875 C188.44036377 77.58569092 188.45494629 76.40966309 188.4699707 75.19799805 C187.90657169 71.3642507 186.66284628 69.75568917 184 67 C180.50595975 64.46983292 177.19446208 64.94641222 173 65 C173.03927612 63.50218994 173.03927612 63.50218994 173.0793457 61.97412109 C173.17020673 58.25071841 173.22737771 54.52741262 173.2746582 50.80322266 C173.29972128 49.19498182 173.33378171 47.58685398 173.37719727 45.97900391 C173.43821848 43.66019761 173.46628963 41.34290335 173.48828125 39.0234375 C173.51408768 38.31069672 173.5398941 37.59795593 173.56648254 36.86361694 C173.56862443 33.00554226 173.02043413 30.54128754 170.65698242 27.56103516 C167.00657409 24.04244806 164.54702105 23.87543082 159.67578125 23.90234375 C158.64775391 23.90556641 157.61972656 23.90878906 156.56054688 23.91210938 C154.95276367 23.92467773 154.95276367 23.92467773 153.3125 23.9375 C152.22904297 23.94201172 151.14558594 23.94652344 150.02929688 23.95117188 C147.35280915 23.96296257 144.67643223 23.97941937 142 24 C141.71898437 23.10023437 141.43796875 22.20046875 141.1484375 21.2734375 C140.16776257 18.47818038 139.14425309 16.15063729 137.625 13.625 C137.02558594 12.59246094 137.02558594 12.59246094 136.4140625 11.5390625 C135.71410156 10.77722656 135.71410156 10.77722656 135 10 C130.64235643 10 129.55163804 10.61609286 125.94238281 12.81079102 Z " fill="#ECEDED" transform="translate(0,0)"/>
<path d="M0 0 C1.80078125 2.43359375 1.80078125 2.43359375 3.3125 5.4375 C3.82425781 6.42621094 4.33601563 7.41492188 4.86328125 8.43359375 C6 11 6 11 6 13 C6.6705542 12.98428955 7.3411084 12.9685791 8.03198242 12.95239258 C11.0837351 12.88985342 14.13535268 12.85094937 17.1875 12.8125 C18.24259766 12.78736328 19.29769531 12.76222656 20.38476562 12.73632812 C21.91713867 12.72182617 21.91713867 12.72182617 23.48046875 12.70703125 C24.41785889 12.6913208 25.35524902 12.67561035 26.32104492 12.65942383 C30.38897208 13.17658034 32.85721733 14.91832953 35.79418945 17.69824219 C37.53257384 21.01662405 37.37117709 24.17596074 37.29296875 27.828125 C37.28872391 28.57713074 37.28447906 29.32613647 37.28010559 30.09783936 C37.26335746 32.48226375 37.22571397 34.86583253 37.1875 37.25 C37.17244809 38.86977943 37.15876057 40.48957215 37.14648438 42.109375 C37.1134668 46.07324466 37.06171246 50.03647743 37 54 C38.63001953 53.94392578 38.63001953 53.94392578 40.29296875 53.88671875 C44.76952507 54.02351552 46.56840367 55.20684019 50 58 C53.15094312 62.72641468 52.37195426 67.77936299 52.37060547 73.34179688 C52.37497091 75.36154 52.41127576 77.37908209 52.44921875 79.3984375 C52.45308594 80.6771875 52.45695313 81.9559375 52.4609375 83.2734375 C52.46915527 84.44310059 52.47737305 85.61276367 52.48583984 86.81787109 C51.90199542 90.64190536 50.68180221 92.26506832 48 95 C44.24496203 97.07515256 41.22519519 97.06401811 37 97 C37.02094727 97.96824707 37.04189453 98.93649414 37.06347656 99.93408203 C37.13618512 103.54574645 37.18191056 107.15734691 37.21972656 110.76953125 C37.23977222 112.32921244 37.26701657 113.88881913 37.30175781 115.44824219 C37.35059126 117.69745314 37.37303815 119.9456659 37.390625 122.1953125 C37.41127014 122.8861795 37.43191528 123.57704651 37.45318604 124.28884888 C37.45548631 129.31564925 36.153896 132.13424138 33 136 C30.42694131 137.28652934 28.58145743 137.13461698 25.69924927 137.14717102 C24.01255127 137.15790398 24.01255127 137.15790398 22.29177856 137.16885376 C21.05225433 137.17154266 19.8127301 137.17423157 18.53564453 137.17700195 C17.23479919 137.18357315 15.93395386 137.19014435 14.59368896 137.19691467 C11.01927882 137.21432814 7.44488206 137.22487705 3.87044001 137.2331202 C1.6381612 137.23826891 -0.59411344 137.24434466 -2.82638931 137.25063133 C-9.80813406 137.26968314 -16.78986823 137.28391511 -23.77163398 137.2922433 C-31.8358699 137.30202115 -39.89983172 137.32835471 -47.96397102 137.36874419 C-54.19417331 137.39887974 -60.42429692 137.41370966 -66.6545707 137.41702431 C-70.3771563 137.41937747 -74.09944909 137.42837191 -77.82195663 137.45348549 C-81.97376591 137.48104297 -86.12496065 137.47694299 -90.27685547 137.4699707 C-92.13006912 137.48918579 -92.13006912 137.48918579 -94.02072144 137.50878906 C-95.71587891 137.49837334 -95.71587891 137.49837334 -97.44528198 137.48774719 C-98.42715925 137.49013555 -99.40903652 137.4925239 -100.42066765 137.49498463 C-103.75061703 136.85595346 -104.91484388 135.62206943 -107 133 C-107.93516858 130.19449427 -108.13542866 128.45283233 -108.16062927 125.54827881 C-108.1706749 124.63712814 -108.18072052 123.72597748 -108.19107056 122.78721619 C-108.19690155 121.78976883 -108.20273254 120.79232147 -108.20874023 119.76464844 C-108.21852402 118.71231522 -108.2283078 117.65998199 -108.23838806 116.57575989 C-108.26834654 113.08697782 -108.28972821 109.59823407 -108.30859375 106.109375 C-108.31516558 104.91831398 -108.3217374 103.72725296 -108.32850838 102.50009918 C-108.36110313 96.1962045 -108.3855544 89.89232675 -108.4050293 83.58837891 C-108.4228488 78.36970464 -108.45768051 73.15157003 -108.50756836 67.93310547 C-108.56772122 61.63371585 -108.5984985 55.33482704 -108.60820198 49.03516388 C-108.61676556 46.6349734 -108.63560562 44.23479662 -108.6649456 41.8347702 C-108.70382515 38.47356234 -108.70489851 35.11430875 -108.69702148 31.75292969 C-108.71702209 30.76357925 -108.73702271 29.77422882 -108.75762939 28.75489807 C-108.69478865 22.77477693 -107.69412624 19.57087992 -103.48330784 15.25087357 C-100.35009528 12.60863527 -97.96499452 12.9164929 -93.95922852 13.00097656 C-92.04805992 13.03399872 -92.04805992 13.03399872 -90.09828186 13.06768799 C-89.41260698 13.08047035 -88.72693211 13.09325272 -88.0204792 13.10642242 C-83.5594957 13.17766778 -79.09782945 13.18332435 -74.63636875 13.20027542 C-70.74947619 13.21866465 -66.86559074 13.25908773 -62.97973633 13.35302734 C-41.47759768 13.84993852 -26.03458138 11.50284343 -7.48179626 0.05999756 C-4.47323449 -1.2249863 -3.05337398 -1.0941672 0 0 Z M-100 24 C-100.44861157 26.00860188 -100.44861157 26.00860188 -100.38095093 28.25085449 C-100.3894104 29.11730087 -100.39786987 29.98374725 -100.40658569 30.87644958 C-100.400513 31.82407669 -100.39444031 32.7717038 -100.38818359 33.74804688 C-100.39344055 34.74828384 -100.39869751 35.74852081 -100.40411377 36.77906799 C-100.41734073 40.09245318 -100.40856595 43.40535975 -100.3984375 46.71875 C-100.40045745 49.01656181 -100.40336823 51.314373 -100.40713501 53.61218262 C-100.41156203 58.43080746 -100.40511503 63.24926561 -100.39111328 68.06787109 C-100.37402136 74.25219744 -100.3838605 80.43613324 -100.40183067 86.62044525 C-100.41265822 91.36613928 -100.40922687 96.11174034 -100.4014473 100.85743713 C-100.39944245 103.13806708 -100.4019145 105.41870539 -100.40888596 107.69932556 C-100.41648336 110.88376304 -100.40491983 114.06756325 -100.38818359 117.25195312 C-100.39425629 118.19958023 -100.40032898 119.14720734 -100.40658569 120.12355042 C-100.39812622 120.9899968 -100.38966675 121.85644318 -100.38095093 122.74914551 C-100.37981985 123.50204109 -100.37868877 124.25493668 -100.37752342 125.03064728 C-99.87947526 127.62871787 -99.15886846 128.48404051 -97 130 C-94.63830836 130.45138314 -94.63830836 130.45138314 -91.9519043 130.38095093 C-90.90876068 130.3894104 -89.86561707 130.39786987 -88.79086304 130.40658569 C-87.64687042 130.400513 -86.50287781 130.39444031 -85.32421875 130.38818359 C-84.1191568 130.39344055 -82.91409485 130.39869751 -81.67251587 130.40411377 C-78.36661455 130.41506612 -75.06127542 130.41248391 -71.75540543 130.40297651 C-68.2974598 130.39538639 -64.83953836 130.40242372 -61.3815918 130.40713501 C-55.57433758 130.41259447 -49.76719779 130.40539603 -43.95996094 130.39111328 C-37.24396056 130.3747863 -30.5282334 130.38007468 -23.81223965 130.3965925 C-18.0482496 130.41020202 -12.28434184 130.41212967 -6.52034092 130.40427649 C-3.07677799 130.39959699 0.36665648 130.39898259 3.81021118 130.40888596 C7.64832193 130.4191528 11.48612611 130.40492688 15.32421875 130.38818359 C17.04020767 130.39729263 17.04020767 130.39729263 18.79086304 130.40658569 C19.83400665 130.39812622 20.87715027 130.38966675 21.9519043 130.38095093 C22.8596611 130.37981985 23.76741791 130.37868877 24.7026825 130.37752342 C27.46743013 129.92318614 28.35873805 129.2395854 30 127 C30.46354933 124.14657543 30.46354933 124.14657543 30.3984375 120.90625 C30.40230469 119.71128906 30.40617188 118.51632813 30.41015625 117.28515625 C30.39855469 116.03605469 30.38695312 114.78695312 30.375 113.5 C30.39240234 111.62634766 30.39240234 111.62634766 30.41015625 109.71484375 C30.40628906 108.51988281 30.40242187 107.32492188 30.3984375 106.09375 C30.39336182 104.44922852 30.39336182 104.44922852 30.38818359 102.77148438 C30.18934009 100.04404245 30.18934009 100.04404245 28.89257812 98.14672852 C26.04744093 96.4228367 23.62580746 96.59537041 20.3203125 96.55859375 C19.67053436 96.54538589 19.02075623 96.53217804 18.35128784 96.51856995 C16.27581538 96.47771664 14.20078306 96.45602948 12.125 96.4375 C10.05649517 96.4136382 7.98840052 96.38536697 5.9201355 96.34571838 C4.03823437 96.31034059 2.15606201 96.29038951 0.27392578 96.27124023 C-3.01580481 95.99869059 -5.14240428 95.63994415 -8 94 C-12.39846333 88.4906435 -11.47643789 82.21855516 -11.4375 75.5 C-11.45748047 74.27667969 -11.47746094 73.05335937 -11.49804688 71.79296875 C-11.49708008 70.02373047 -11.49708008 70.02373047 -11.49609375 68.21875 C-11.49794678 67.14560547 -11.4997998 66.07246094 -11.50170898 64.96679688 C-10.86557584 61.20509861 -9.7509136 59.62455667 -7 57 C-2.7714398 55.07256834 0.99380663 54.74204748 5.60546875 54.69140625 C7.45108398 54.65370117 7.45108398 54.65370117 9.33398438 54.61523438 C11.9146611 54.57991847 14.49539706 54.548705 17.07617188 54.52148438 C18.30271484 54.49505859 19.52925781 54.46863281 20.79296875 54.44140625 C21.9121167 54.42795166 23.03126465 54.41449707 24.18432617 54.40063477 C27.36488316 54.2355635 27.36488316 54.2355635 30 51 C30 46.05 30 41.1 30 36 C-8.94 35.67 -47.88 35.34 -88 35 C-88.33 33.35 -88.66 31.7 -89 30 C-88 29 -88 29 -85.88964844 28.88989258 C-84.9721582 28.89142334 -84.05466797 28.8929541 -83.109375 28.89453125 C-71.09826581 28.7638513 -61.39290469 28.63765592 -51 22 C-51 21.67 -51 21.34 -51 21 C-57.49609906 20.92402794 -63.99208385 20.87143328 -70.48852539 20.83520508 C-72.69918092 20.82010475 -74.90980643 20.79962291 -77.12036133 20.77368164 C-80.29515993 20.73735345 -83.46956297 20.72028616 -86.64453125 20.70703125 C-87.63524124 20.69154739 -88.62595123 20.67606354 -89.64668274 20.66011047 C-90.56741074 20.65988388 -91.48813873 20.65965729 -92.43676758 20.65942383 C-93.65255241 20.64943108 -93.65255241 20.64943108 -94.89289856 20.63923645 C-97.57879997 21.09909819 -98.31439396 21.8893767 -100 24 Z " fill="#2F6971" transform="translate(136,11)"/>
<path d="M0 0 C1.28131554 -0.00934319 1.28131554 -0.00934319 2.58851624 -0.01887512 C3.50733078 -0.00966537 4.42614532 -0.00045563 5.37280273 0.0090332 C6.31824448 0.0085347 7.26368622 0.00803619 8.23777771 0.00752258 C10.23585106 0.00986284 12.23392737 0.0195885 14.23193359 0.03613281 C17.29803681 0.05975006 20.36327218 0.05669035 23.42944336 0.05004883 C25.36890169 0.05562466 27.30835635 0.06273394 29.24780273 0.0715332 C30.16864151 0.0706218 31.08948029 0.06971039 32.03822327 0.06877136 C32.88928146 0.07830338 33.74033966 0.08783539 34.6171875 0.09765625 C35.36758804 0.10226364 36.11798859 0.10687103 36.89112854 0.11161804 C38.74389648 0.37231445 38.74389648 0.37231445 40.74389648 2.37231445 C41.19810486 6.18685731 41.06794424 10.03383959 41.05639648 13.87231445 C41.07250977 14.94352539 41.08862305 16.01473633 41.10522461 17.1184082 C41.10586914 18.14063477 41.10651367 19.16286133 41.10717773 20.21606445 C41.11015869 21.15643555 41.11313965 22.09680664 41.11621094 23.06567383 C40.93191528 24.20746094 40.93191528 24.20746094 40.74389648 25.37231445 C37.68246767 27.413267 37.04648152 27.62520392 33.59545898 27.64697266 C32.34901611 27.66127068 32.34901611 27.66127068 31.07739258 27.67585754 C30.18358887 27.67494614 29.28978516 27.67403473 28.36889648 27.6730957 C27.44802246 27.67738083 26.52714844 27.68166595 25.57836914 27.68608093 C23.63160016 27.69182334 21.68480973 27.69232515 19.73803711 27.68798828 C16.75524441 27.68482648 13.77344165 27.7082948 10.79077148 27.73364258 C8.90014774 27.73591535 7.00952132 27.73661917 5.11889648 27.7355957 C4.22509277 27.74480545 3.33128906 27.7540152 2.41040039 27.76350403 C1.16395752 27.75416084 1.16395752 27.75416084 -0.10766602 27.74462891 C-0.83808105 27.74525833 -1.56849609 27.74588776 -2.32104492 27.74653625 C-4.81643719 27.26395129 -5.70717188 26.35047103 -7.25610352 24.37231445 C-7.64428711 22.15161133 -7.64428711 22.15161133 -7.65454102 19.59106445 C-7.6584082 18.66680664 -7.66227539 17.74254883 -7.66625977 16.7902832 C-7.6546582 15.82735352 -7.64305664 14.86442383 -7.63110352 13.87231445 C-7.64270508 12.90938477 -7.65430664 11.94645508 -7.66625977 10.9543457 C-7.66239258 10.03008789 -7.65852539 9.10583008 -7.65454102 8.15356445 C-7.65115723 7.30858398 -7.64777344 6.46360352 -7.64428711 5.59301758 C-6.86763547 1.14998407 -4.23450301 -0.00354808 0 0 Z " fill="#C5D0D7" transform="translate(139.256103515625,72.627685546875)"/>
<path d="M0 0 C4.455 9.405 4.455 9.405 9 19 C-7.5 19 -24 19 -41 19 C-37.61789607 16.46342205 -34.7231193 14.774242 -30.94921875 12.96875 C-29.77552734 12.40542969 -28.60183594 11.84210937 -27.39257812 11.26171875 C-26.78357666 10.97216309 -26.1745752 10.68260742 -25.54711914 10.38427734 C-23.70175071 9.50677643 -21.85942903 8.62313784 -20.01757812 7.73828125 C-3.84156 0 -3.84156 0 0 0 Z " fill="#8EF9A9" transform="translate(132,20)"/>
<path d="M0 0 C1.65 0.33 3.3 0.66 5 1 C5 10.9 5 20.8 5 31 C14.82803025 30.96040272 14.82803025 30.96040272 24.65600586 30.90991211 C26.47950562 30.90616577 26.47950562 30.90616577 28.33984375 30.90234375 C29.59144287 30.89710693 30.84304199 30.89187012 32.13256836 30.88647461 C35 31 35 31 36 32 C36.04080783 33.99958364 36.04254356 36.00045254 36 38 C30.74894558 38.02464928 25.49792455 38.04283568 20.24682617 38.05493164 C18.45905979 38.05997218 16.67129755 38.06680454 14.88354492 38.07543945 C12.31948832 38.0875173 9.75548603 38.09323094 7.19140625 38.09765625 C5.98515343 38.10539818 5.98515343 38.10539818 4.75453186 38.11329651 C2.83598285 38.11349215 0.91754632 38.06201983 -1 38 C-2.99384779 36.00615221 -2.16393954 32.04694988 -2.16796875 29.31640625 C-2.17296135 28.16035133 -2.17296135 28.16035133 -2.17805481 26.98094177 C-2.1831271 25.34757079 -2.18546304 23.7141894 -2.18530273 22.08081055 C-2.1874878 19.57648701 -2.20563595 17.07260479 -2.22460938 14.56835938 C-2.22754347 12.98437651 -2.22952816 11.40039155 -2.23046875 9.81640625 C-2.23765427 9.0642836 -2.24483978 8.31216095 -2.25224304 7.5372467 C-2.22882279 2.22882279 -2.22882279 2.22882279 0 0 Z " fill="#2D6670" transform="translate(46,95)"/>
<path d="M0 0 C2.50041894 0.08168338 3.83455801 0.19140582 6.0625 1.375 C7.67106522 4.49159511 7.48463381 6.87512469 7.0625 10.3125 C5.5 12.8125 5.5 12.8125 3.0625 14.3125 C-0.71434879 14.3125 -2.97263544 14.09645245 -5.9375 11.6875 C-7.37866288 8.26473815 -6.79307966 5.86644628 -5.9375 2.3125 C-3.9375 0.3125 -3.9375 0.3125 0 0 Z " fill="#326973" transform="translate(145.9375,79.6875)"/>
<path d="M0 0 C2.60478883 -0.0809313 5.20706653 -0.14045434 7.8125 -0.1875 C8.55048828 -0.21263672 9.28847656 -0.23777344 10.04882812 -0.26367188 C15.46242355 -0.3371596 15.46242355 -0.3371596 18.01171875 1.26171875 C19 3 19 3 19 7 C16.3941111 7.13494246 13.79517889 7.23402299 11.1875 7.3125 C10.08051758 7.3753418 10.08051758 7.3753418 8.95117188 7.43945312 C6.79296875 7.48828125 6.79296875 7.48828125 3 7 C0.96864499 4.58209588 0 3.17574054 0 0 Z " fill="#A9B9C3" transform="translate(147,32)"/>
</svg>
